OpenSim_Sub06_CSStiffKnee_GRF.mot
version=1
nRows=29
nColumns=19
inDegrees=no
endheader
time	lFx	lFy	lFz	lCOPx	lCOPy	lCOPz	rFx	rFy	rFz	rCOPx	rCOPy	rCOPz	lMx	lMy	lMz	rMx	rMy	rMz
0	4.05149275	261.59775200	23.03562257	0.74564291	0	-0.64789697	5.93758954	418.95396869	-27.22346183	0.74524323	0	-0.35607140	0	-9.86619427	0	0	2.17596921	-0.00000000
0.01000000	4.19767730	261.78652310	23.00633207	0.74626657	0	-0.64758099	4.21438711	419.16369698	-27.18533534	0.74344299	0	-0.35602749	0	-9.76938511	0	0	1.52456192	0
0.02000000	4.27101959	262.26277844	23.04275313	0.74663528	0	-0.64738258	3.13817767	418.88786073	-27.12433979	0.74234071	0	-0.35603380	0	-9.69793542	0	0	1.08724063	0.00000000
0.03000000	4.29313810	262.97606972	23.13227054	0.74677747	0	-0.64733933	2.70631984	418.26745649	-27.02607236	0.74200059	0	-0.35604830	0	-9.67584573	0	0	0.90410435	0
0.04000000	4.29091383	263.78421273	23.23460796	0.74678064	0	-0.64742717	2.62127575	417.48096929	-26.93113619	0.74201521	0	-0.35607598	0	-9.68245185	0	0	0.88356453	0
0.05000000	4.26173399	264.60188028	23.35121324	0.74680961	0	-0.64753376	2.62615590	416.69192009	-26.84868521	0.74210117	0	-0.35609793	0	-9.69854893	0	0	0.91776417	0
0.06000000	4.21391353	265.34202717	23.45449109	0.74686799	0	-0.64761517	2.61649394	415.98103403	-26.75965925	0.74224414	0	-0.35612604	0	-9.71374700	0	0	0.94157468	0
0.07000000	4.17244454	265.94428327	23.51357710	0.74688283	0	-0.64766833	2.59449400	415.33597374	-26.68670337	0.74246972	0	-0.35620638	0	-9.71606672	0	0	0.93932111	-0.00000000
0.08000000	4.15647073	266.41203058	23.54575336	0.74671199	0	-0.64767420	2.54406274	414.74641549	-26.61935659	0.74260332	0	-0.35631994	0	-9.71181819	0	0	0.93482409	0.00000000
0.09000000	4.14208193	266.80346520	23.56906300	0.74638019	0	-0.64766012	2.46849360	414.16311805	-26.54177854	0.74256659	0	-0.35642186	0	-9.70143029	0	0	0.94559101	0.00000000
0.10000000	4.12571633	267.15085892	23.58628229	0.74597760	0	-0.64768481	2.39534243	413.60808534	-26.45461304	0.74239685	0	-0.35646807	0	-9.68604147	0	0	0.96997798	-0.00000000
0.11000000	4.13503445	267.49875797	23.61334494	0.74565396	0	-0.64771391	2.35336744	413.17465092	-26.34800749	0.74226011	0	-0.35645367	0	-9.68244742	0	0	0.98962339	-0.00000000
0.12000000	4.16065790	267.86139213	23.65172468	0.74550338	0	-0.64769838	2.35496448	412.82477695	-26.23434837	0.74216564	0	-0.35643646	0	-9.69476319	0	0	0.98792004	0.00000000
0.13000000	4.18885768	268.29273203	23.67603228	0.74540475	0	-0.64768092	2.40669790	412.49832850	-26.13620094	0.74217068	0	-0.35646010	0	-9.70546325	0	0	0.96696883	0
0.14000000	4.21821808	268.86692353	23.69407228	0.74533522	0	-0.64772039	2.48152960	412.15249859	-26.06857943	0.74218099	0	-0.35652160	0	-9.70199373	0	0	0.96299813	-0.00000000
0.15000000	4.25489456	269.54036801	23.73224691	0.74523888	0	-0.64775671	2.55856021	411.77973636	-26.02062388	0.74212221	0	-0.35659683	0	-9.68249422	0	0	0.97452660	-0.00000000
0.16000000	4.30091493	270.27145169	23.78963416	0.74505171	0	-0.64778181	2.61730891	411.38158110	-25.96682173	0.74202125	0	-0.35668371	0	-9.66069880	0	0	0.98092890	0
0.17000000	4.34855987	270.98881199	23.85598851	0.74480492	0	-0.64781384	2.65235903	410.98747349	-25.89593012	0.74192598	0	-0.35677520	0	-9.64587525	0	0	0.98668031	0.00000000
0.18000000	4.37323813	271.61494960	23.91770527	0.74453255	0	-0.64785855	2.68077109	410.63924753	-25.82679587	0.74181782	0	-0.35684401	0	-9.63848426	0	0	0.99783428	0
0.19000000	4.38858462	272.08628166	23.95597111	0.74438051	0	-0.64789972	2.71053372	410.31423991	-25.79357856	0.74168830	0	-0.35690503	0	-9.63141678	0	0	1.00605578	0
0.20000000	4.42935637	272.37801594	23.97035994	0.74428951	0	-0.64790299	2.73538275	410.00227958	-25.81429452	0.74157145	0	-0.35700481	0	-9.61699369	0	0	1.02103720	0
0.21000000	4.48340607	272.54913499	23.96801921	0.74416295	0	-0.64787723	2.74784379	409.79746711	-25.86085858	0.74141436	0	-0.35709458	0	-9.60377438	0	0	1.03313956	0.00000000
0.22000000	4.52523086	272.64520423	23.95436311	0.74399840	0	-0.64783312	2.76068479	409.75050364	-25.90000684	0.74117018	0	-0.35711972	0	-9.59164833	0	0	1.03068842	0
0.23000000	4.56270448	272.69955613	23.95028693	0.74380586	0	-0.64779242	2.79679270	409.79052710	-25.94080405	0.74081426	0	-0.35711940	0	-9.58777429	0	0	1.01660959	0
0.24000000	4.59808524	272.73761819	23.96546611	0.74354771	0	-0.64777692	2.84890895	409.82157306	-26.00269260	0.74041396	0	-0.35714324	0	-9.58818810	0	0	0.99198780	0.00000000
0.25000000	4.61907375	272.75075041	23.99279378	0.74325519	0	-0.64773920	2.89951305	409.81359265	-26.06133816	0.74007190	0	-0.35722163	0	-9.57700282	0	0	0.96964815	0.00000000
0.26000000	4.61003411	272.70076675	24.01220737	0.74299543	0	-0.64766806	2.96616592	409.80496624	-26.09776308	0.73987850	0	-0.35734576	0	-9.56295239	0	0	0.95824580	-0.00000000
0.27000000	4.59440796	272.60271038	24.00017434	0.74287559	0	-0.64761026	3.06192639	409.83359061	-26.10832891	0.73978007	0	-0.35746567	0	-9.55416789	0	0	0.97210191	0.00000000
0.28000000	4.58089639	272.51714072	23.95668519	0.74296616	0	-0.64758598	3.16205776	409.83008619	-26.08480081	0.73958744	0	-0.35755849	0	-9.54604769	0	0	1.01016188	-0.00000000
